<svg xmlns="http://www.w3.org/2000/svg" xmlns:xlink="http://www.w3.org/1999/xlink" width="454" zoomAndPan="magnify" viewBox="0 0 340.5 119.999999" height="160" preserveAspectRatio="xMidYMid meet" version="1.0"><defs><g/><clipPath id="104033d221"><path d="M 19.894531 39.726562 L 44.03125 39.726562 L 44.03125 63.863281 L 19.894531 63.863281 Z M 19.894531 39.726562 " clip-rule="nonzero"/></clipPath><clipPath id="7909eb9c07"><path d="M 31.964844 39.726562 C 25.296875 39.726562 19.894531 45.128906 19.894531 51.792969 C 19.894531 58.457031 25.296875 63.863281 31.964844 63.863281 C 38.628906 63.863281 44.03125 58.457031 44.03125 51.792969 C 44.03125 45.128906 38.628906 39.726562 31.964844 39.726562 Z M 31.964844 39.726562 " clip-rule="nonzero"/></clipPath><clipPath id="4e27c98217"><path d="M 3.570312 20.300781 L 27.707031 20.300781 L 27.707031 44.4375 L 3.570312 44.4375 Z M 3.570312 20.300781 " clip-rule="nonzero"/></clipPath><clipPath id="c2fe7b06d1"><path d="M 15.640625 20.300781 C 8.972656 20.300781 3.570312 25.703125 3.570312 32.367188 C 3.570312 39.03125 8.972656 44.4375 15.640625 44.4375 C 22.304688 44.4375 27.707031 39.03125 27.707031 32.367188 C 27.707031 25.703125 22.304688 20.300781 15.640625 20.300781 Z M 15.640625 20.300781 " clip-rule="nonzero"/></clipPath><clipPath id="2cbef5a121"><path d="M 15.804688 38.269531 L 63.347656 38.269531 L 63.347656 92.566406 L 15.804688 92.566406 Z M 15.804688 38.269531 " clip-rule="nonzero"/></clipPath><clipPath id="d002569148"><path d="M 4.109375 19.816406 L 30 19.816406 L 30 45 L 4.109375 45 Z M 4.109375 19.816406 " clip-rule="nonzero"/></clipPath></defs><g clip-path="url(#104033d221)"><g clip-path="url(#7909eb9c07)"><path fill="#d7b19c" d="M 19.894531 39.726562 L 44.03125 39.726562 L 44.03125 63.863281 L 19.894531 63.863281 Z M 19.894531 39.726562 " fill-opacity="1" fill-rule="nonzero"/></g></g><g clip-path="url(#4e27c98217)"><g clip-path="url(#c2fe7b06d1)"><path fill="#eaac1c" d="M 3.570312 20.300781 L 27.707031 20.300781 L 27.707031 44.4375 L 3.570312 44.4375 Z M 3.570312 20.300781 " fill-opacity="1" fill-rule="nonzero"/></g></g><g clip-path="url(#2cbef5a121)"><path fill="#28527a" d="M 61.328125 74.328125 C 61.300781 74.367188 61.246094 74.414062 61.15625 74.414062 L 58.359375 74.414062 C 57.152344 74.414062 56.171875 75.390625 56.171875 76.589844 L 56.171875 84.703125 C 56.171875 84.820312 56.078125 84.914062 55.960938 84.914062 L 46.277344 84.914062 C 45.074219 84.914062 44.09375 85.890625 44.09375 87.09375 L 44.09375 90.390625 C 44.09375 90.507812 43.996094 90.605469 43.878906 90.605469 L 23.699219 90.605469 C 23.582031 90.605469 23.484375 90.507812 23.484375 90.390625 L 23.484375 75.285156 C 23.484375 74.949219 23.40625 74.609375 23.253906 74.308594 L 18.582031 65.003906 C 18.578125 64.996094 18.574219 64.988281 18.570312 64.976562 L 18.363281 64.398438 C 18.359375 64.386719 18.359375 64.371094 18.355469 64.359375 C 18.148438 63.195312 17.816406 60.914062 17.816406 59.753906 C 17.816406 56.707031 18.691406 53.953125 19.613281 51.894531 L 25.167969 58.929688 L 28.105469 62.664062 C 28.109375 62.671875 28.117188 62.675781 28.121094 62.683594 C 28.484375 63.117188 28.996094 63.34375 29.515625 63.34375 C 29.910156 63.34375 30.304688 63.214844 30.640625 62.953125 L 33.289062 60.878906 L 42.113281 53.988281 C 42.480469 53.703125 42.714844 53.289062 42.773438 52.824219 C 42.828125 52.359375 42.699219 51.902344 42.410156 51.539062 L 33.777344 40.628906 C 35.078125 40.363281 36.277344 40.234375 37.414062 40.234375 C 48.742188 40.234375 56.964844 47.816406 56.964844 58.265625 C 56.964844 58.269531 56.964844 58.273438 56.964844 58.277344 C 56.964844 58.367188 56.972656 58.457031 57 58.550781 L 61.363281 74.144531 C 61.386719 74.226562 61.359375 74.292969 61.328125 74.328125 Z M 24.308594 47.445312 C 24.683594 47.152344 24.796875 46.640625 24.574219 46.222656 C 24.570312 46.21875 24.339844 45.761719 24.289062 45.203125 C 24.210938 44.382812 24.578125 43.992188 24.863281 43.773438 C 25.386719 43.359375 25.886719 43.265625 26.429688 43.472656 C 26.882812 43.644531 27.203125 43.960938 27.234375 43.996094 C 27.582031 44.386719 28.164062 44.425781 28.574219 44.105469 L 31.933594 41.472656 L 40.722656 52.578125 L 32.070312 59.335938 L 29.546875 61.3125 L 26.71875 57.71875 L 20.789062 50.203125 Z M 58.933594 58.148438 C 58.902344 52.527344 56.660156 47.429688 52.605469 43.785156 C 48.648438 40.226562 43.253906 38.269531 37.414062 38.269531 C 35.75 38.269531 33.988281 38.515625 32.027344 39.015625 C 31.839844 39.066406 31.683594 39.160156 31.558594 39.289062 C 31.5 39.324219 31.441406 39.359375 31.386719 39.402344 L 27.984375 42.066406 C 26.957031 41.378906 25.316406 40.917969 23.640625 42.226562 C 22.121094 43.421875 22.15625 45.167969 22.511719 46.355469 L 18.894531 49.1875 C 18.785156 49.273438 18.695312 49.378906 18.625 49.496094 C 18.574219 49.550781 18.53125 49.613281 18.496094 49.683594 C 17.285156 51.992188 15.84375 55.609375 15.84375 59.753906 C 15.84375 61.046875 16.183594 63.425781 16.414062 64.707031 C 16.433594 64.820312 16.464844 64.9375 16.503906 65.050781 L 16.710938 65.632812 C 16.742188 65.714844 16.777344 65.800781 16.816406 65.882812 L 21.488281 75.1875 C 21.503906 75.21875 21.511719 75.25 21.511719 75.285156 L 21.511719 90.390625 C 21.511719 91.589844 22.492188 92.566406 23.699219 92.566406 L 43.878906 92.566406 C 45.082031 92.566406 46.066406 91.589844 46.066406 90.390625 L 46.066406 87.09375 C 46.066406 86.976562 46.160156 86.878906 46.277344 86.878906 L 55.960938 86.878906 C 57.164062 86.878906 58.144531 85.902344 58.144531 84.703125 L 58.144531 76.589844 C 58.144531 76.472656 58.242188 76.378906 58.359375 76.378906 L 61.15625 76.378906 C 61.847656 76.378906 62.480469 76.0625 62.898438 75.515625 C 63.316406 74.96875 63.449219 74.277344 63.265625 73.617188 L 58.933594 58.148438 " fill-opacity="1" fill-rule="nonzero"/></g><g clip-path="url(#d002569148)"><path fill="#28527a" d="M 8.996094 35.753906 C 8.996094 35.753906 9 35.753906 9 35.75 Z M 12.304688 38.882812 C 12.007812 38.460938 11.4375 38.34375 10.996094 38.601562 L 10.953125 38.523438 L 10.964844 38.515625 C 10.960938 38.519531 10.609375 38.695312 10.164062 38.691406 C 9.640625 38.6875 9.207031 38.429688 8.839844 37.90625 C 8.476562 37.386719 8.382812 36.902344 8.5625 36.421875 C 8.707031 36.027344 8.980469 35.769531 9.003906 35.75 C 9.390625 35.429688 9.480469 34.859375 9.1875 34.4375 C 9.1875 34.433594 9.183594 34.429688 9.183594 34.425781 L 6.386719 30.457031 L 9.195312 28.503906 L 18.703125 21.894531 C 18.703125 21.898438 18.703125 21.898438 18.707031 21.902344 C 18.71875 21.925781 18.734375 21.945312 18.75 21.964844 L 27.621094 33.582031 L 24.1875 36.1875 C 23.660156 35.722656 23.027344 35.398438 22.34375 35.253906 C 21.308594 35.03125 20.277344 35.230469 19.4375 35.816406 C 18.597656 36.398438 18.050781 37.289062 17.90625 38.3125 C 17.804688 39.015625 17.898438 39.730469 18.171875 40.398438 L 14.988281 42.707031 Z M 15.875 44.492188 L 19.96875 41.523438 C 19.972656 41.523438 19.976562 41.519531 19.980469 41.515625 C 19.992188 41.507812 20 41.503906 20.011719 41.496094 C 20.457031 41.183594 20.566406 40.570312 20.253906 40.128906 C 19.921875 39.65625 19.78125 39.109375 19.855469 38.59375 C 19.925781 38.109375 20.179688 37.695312 20.566406 37.425781 C 20.953125 37.15625 21.4375 37.066406 21.929688 37.171875 C 22.457031 37.285156 22.929688 37.609375 23.261719 38.085938 C 23.453125 38.359375 23.761719 38.503906 24.070312 38.503906 C 24.265625 38.503906 24.464844 38.449219 24.636719 38.328125 C 24.679688 38.296875 24.71875 38.261719 24.757812 38.226562 L 29.050781 34.964844 C 29.050781 34.964844 29.054688 34.960938 29.058594 34.960938 C 29.78125 34.394531 29.917969 33.34375 29.363281 32.617188 L 20.339844 20.800781 C 20.023438 20.328125 19.570312 20.015625 19.058594 19.914062 C 18.578125 19.820312 18.089844 19.925781 17.683594 20.207031 L 8.066406 26.890625 L 5.164062 28.914062 C 4.332031 29.492188 4.117188 30.605469 4.675781 31.449219 C 4.679688 31.457031 4.6875 31.464844 4.691406 31.472656 L 7.125 34.929688 C 6.492188 35.859375 6.0625 37.378906 7.222656 39.03125 C 8.097656 40.277344 9.214844 40.660156 10.183594 40.660156 C 10.5 40.660156 10.800781 40.617188 11.070312 40.554688 L 13.554688 44.09375 C 13.875 44.554688 14.390625 44.800781 14.914062 44.800781 C 15.242188 44.800781 15.574219 44.703125 15.859375 44.503906 C 15.867188 44.5 15.871094 44.496094 15.875 44.492188 " fill-opacity="1" fill-rule="nonzero"/></g><g fill="#28527a" fill-opacity="1"><g transform="translate(71.880474, 73.229596)"><g><path d="M 28.875 0 L 1.96875 0 L 1.96875 -1.640625 C 4.007812 -1.804688 5.289062 -2.066406 5.8125 -2.421875 C 6.332031 -2.785156 6.59375 -3.445312 6.59375 -4.40625 L 6.59375 -27.6875 C 6.59375 -28.75 6.1875 -29.5 5.375 -29.9375 C 4.5625 -30.382812 3.425781 -30.671875 1.96875 -30.796875 L 1.96875 -32.40625 L 27.046875 -32.40625 L 27.046875 -24.59375 L 25.359375 -24.59375 C 25.035156 -25.789062 24.425781 -26.953125 23.53125 -28.078125 C 22.644531 -29.203125 21.878906 -29.898438 21.234375 -30.171875 C 20.597656 -30.453125 19.039062 -30.59375 16.5625 -30.59375 L 11.46875 -30.59375 L 11.46875 -17.71875 L 15.125 -17.71875 C 16.84375 -17.71875 18.082031 -18.101562 18.84375 -18.875 C 19.601562 -19.644531 20.132812 -21.03125 20.4375 -23.03125 L 22.140625 -23.03125 L 22.140625 -10.34375 L 20.4375 -10.34375 C 20.363281 -11.101562 20.148438 -12 19.796875 -13.03125 C 19.453125 -14.0625 18.957031 -14.789062 18.3125 -15.21875 C 17.664062 -15.644531 16.601562 -15.859375 15.125 -15.859375 L 11.46875 -15.859375 L 11.46875 -6.125 C 11.46875 -4.257812 11.757812 -3.082031 12.34375 -2.59375 C 12.925781 -2.113281 14.46875 -1.875 16.96875 -1.875 L 18.953125 -1.875 C 21.085938 -1.875 22.523438 -2.039062 23.265625 -2.375 C 24.015625 -2.707031 24.835938 -3.628906 25.734375 -5.140625 C 26.640625 -6.648438 27.34375 -8.117188 27.84375 -9.546875 L 29.46875 -9.546875 Z M 28.875 0 "/></g></g></g><g fill="#28527a" fill-opacity="1"><g transform="translate(105.131673, 73.229596)"><g><path d="M 15.484375 0 L 15.484375 -1.5 L 16.65625 -1.625 C 18.175781 -1.71875 18.9375 -2.457031 18.9375 -3.84375 L 18.9375 -15.4375 C 18.9375 -16.957031 18.570312 -18.171875 17.84375 -19.078125 C 17.125 -19.984375 16.191406 -20.4375 15.046875 -20.4375 C 12.441406 -20.4375 10.492188 -19.296875 9.203125 -17.015625 L 9.203125 -4.0625 C 9.203125 -2.539062 10.359375 -1.6875 12.671875 -1.5 L 12.671875 0 L 1.640625 0 L 1.640625 -1.5 L 2.734375 -1.625 C 4.210938 -1.726562 4.953125 -2.46875 4.953125 -3.84375 L 4.953125 -17.71875 C 4.953125 -19.6875 3.765625 -20.71875 1.390625 -20.8125 L 1.390625 -22.3125 L 8.890625 -22.78125 L 9.203125 -22.453125 L 9.203125 -19.328125 L 9.3125 -19.328125 C 10.976562 -21.035156 12.347656 -22.097656 13.421875 -22.515625 C 14.492188 -22.941406 15.644531 -23.15625 16.875 -23.15625 C 21.125 -23.15625 23.25 -20.675781 23.25 -15.71875 L 23.25 -4.015625 C 23.25 -2.515625 24.335938 -1.675781 26.515625 -1.5 L 26.515625 0 Z M 15.484375 0 "/></g></g></g><g fill="#28527a" fill-opacity="1"><g transform="translate(135.482111, 73.229596)"><g><path d="M 15.484375 0 L 15.484375 -1.5 L 16.65625 -1.625 C 18.175781 -1.71875 18.9375 -2.457031 18.9375 -3.84375 L 18.9375 -15.4375 C 18.9375 -16.957031 18.570312 -18.171875 17.84375 -19.078125 C 17.125 -19.984375 16.191406 -20.4375 15.046875 -20.4375 C 12.441406 -20.4375 10.492188 -19.296875 9.203125 -17.015625 L 9.203125 -4.0625 C 9.203125 -2.539062 10.359375 -1.6875 12.671875 -1.5 L 12.671875 0 L 1.640625 0 L 1.640625 -1.5 L 2.734375 -1.625 C 4.210938 -1.726562 4.953125 -2.46875 4.953125 -3.84375 L 4.953125 -17.71875 C 4.953125 -19.6875 3.765625 -20.71875 1.390625 -20.8125 L 1.390625 -22.3125 L 8.890625 -22.78125 L 9.203125 -22.453125 L 9.203125 -19.328125 L 9.3125 -19.328125 C 10.976562 -21.035156 12.347656 -22.097656 13.421875 -22.515625 C 14.492188 -22.941406 15.644531 -23.15625 16.875 -23.15625 C 21.125 -23.15625 23.25 -20.675781 23.25 -15.71875 L 23.25 -4.015625 C 23.25 -2.515625 24.335938 -1.675781 26.515625 -1.5 L 26.515625 0 Z M 15.484375 0 "/></g></g></g><g fill="#28527a" fill-opacity="1"><g transform="translate(165.832541, 73.229596)"><g><path d="M 21.65625 -5.28125 C 19.550781 -1.351562 16.46875 0.609375 12.40625 0.609375 C 9.019531 0.609375 6.378906 -0.492188 4.484375 -2.703125 C 2.585938 -4.921875 1.640625 -7.84375 1.640625 -11.46875 C 1.640625 -14.664062 2.601562 -17.410156 4.53125 -19.703125 C 6.457031 -22.003906 8.921875 -23.15625 11.921875 -23.15625 C 14.890625 -23.15625 17.160156 -22.289062 18.734375 -20.5625 C 20.316406 -18.84375 21.109375 -16.484375 21.109375 -13.484375 L 21.109375 -11.96875 L 6.171875 -11.96875 C 6.171875 -8.769531 6.820312 -6.296875 8.125 -4.546875 C 9.425781 -2.796875 11.285156 -1.921875 13.703125 -1.921875 C 15.046875 -1.921875 16.191406 -2.21875 17.140625 -2.8125 C 18.097656 -3.40625 19.078125 -4.554688 20.078125 -6.265625 Z M 16.609375 -13.890625 C 16.609375 -18.910156 15.03125 -21.421875 11.875 -21.421875 C 10.289062 -21.421875 8.960938 -20.75 7.890625 -19.40625 C 6.828125 -18.070312 6.253906 -16.234375 6.171875 -13.890625 Z M 16.609375 -13.890625 "/></g></g></g><g fill="#28527a" fill-opacity="1"><g transform="translate(191.135178, 73.229596)"><g><path d="M 22.984375 -0.40625 C 21.398438 0.164062 20.164062 0.453125 19.28125 0.453125 C 16.882812 0.453125 15.472656 -0.632812 15.046875 -2.8125 L 14.921875 -2.8125 C 12.890625 -0.550781 10.457031 0.578125 7.625 0.578125 C 5.9375 0.578125 4.546875 0.0625 3.453125 -0.96875 C 2.367188 -2 1.828125 -3.359375 1.828125 -5.046875 C 1.828125 -6.929688 2.34375 -8.375 3.375 -9.375 C 4.414062 -10.375 6.195312 -11.289062 8.71875 -12.125 C 12.332031 -13.3125 14.414062 -14.070312 14.96875 -14.40625 L 14.96875 -16.65625 C 14.96875 -17.957031 14.601562 -19.082031 13.875 -20.03125 C 13.15625 -20.988281 12.085938 -21.46875 10.671875 -21.46875 C 9.203125 -21.46875 8.128906 -21.109375 7.453125 -20.390625 C 7.453125 -20.015625 7.519531 -19.566406 7.65625 -19.046875 C 7.789062 -18.535156 7.859375 -17.988281 7.859375 -17.40625 C 7.859375 -16.8125 7.59375 -16.3125 7.0625 -15.90625 C 6.539062 -15.5 5.898438 -15.296875 5.140625 -15.296875 C 3.679688 -15.296875 2.953125 -16.164062 2.953125 -17.90625 C 2.953125 -19.257812 3.800781 -20.472656 5.5 -21.546875 C 7.207031 -22.617188 9.019531 -23.15625 10.9375 -23.15625 C 14.0625 -23.15625 16.234375 -22.539062 17.453125 -21.3125 C 18.671875 -20.09375 19.28125 -18.226562 19.28125 -15.71875 L 19.140625 -4.453125 C 19.140625 -3.628906 19.332031 -3.019531 19.71875 -2.625 C 20.113281 -2.226562 20.46875 -2.003906 20.78125 -1.953125 C 21.09375 -1.898438 21.828125 -1.875 22.984375 -1.875 Z M 15 -12.5 C 11.6875 -11.519531 9.425781 -10.507812 8.21875 -9.46875 C 7.019531 -8.4375 6.421875 -7.15625 6.421875 -5.625 C 6.421875 -3.1875 7.582031 -1.96875 9.90625 -1.96875 C 11.707031 -1.96875 13.363281 -2.84375 14.875 -4.59375 Z M 15 -12.5 "/></g></g></g><g fill="#28527a" fill-opacity="1"><g transform="translate(217.419975, 73.229596)"><g><path d="M 7.453125 -0.890625 L 7.453125 -1.171875 C 4.796875 -1.960938 3.46875 -3.285156 3.46875 -5.140625 C 3.46875 -6.859375 4.601562 -8.179688 6.875 -9.109375 L 6.875 -9.5 C 3.8125 -10.90625 2.28125 -13.023438 2.28125 -15.859375 C 2.28125 -18.035156 3.082031 -19.796875 4.6875 -21.140625 C 6.300781 -22.484375 8.328125 -23.15625 10.765625 -23.15625 C 11.921875 -23.15625 13.289062 -22.90625 14.875 -22.40625 L 22.734375 -22.40625 L 22.734375 -20.265625 L 17.453125 -20.265625 L 17.453125 -20.125 C 18.578125 -18.78125 19.140625 -17.265625 19.140625 -15.578125 C 19.140625 -13.609375 18.320312 -11.9375 16.6875 -10.5625 C 15.050781 -9.195312 13.179688 -8.515625 11.078125 -8.515625 L 8.34375 -8.515625 C 7.238281 -8.054688 6.6875 -7.40625 6.6875 -6.5625 C 6.6875 -6.132812 6.773438 -5.78125 6.953125 -5.5 C 7.140625 -5.21875 7.472656 -4.976562 7.953125 -4.78125 C 8.441406 -4.582031 9.445312 -4.441406 10.96875 -4.359375 L 15.859375 -4.140625 C 18.441406 -3.992188 20.265625 -3.253906 21.328125 -1.921875 C 22.398438 -0.597656 22.9375 0.816406 22.9375 2.328125 C 22.9375 4.703125 21.898438 6.597656 19.828125 8.015625 C 17.753906 9.429688 14.851562 10.140625 11.125 10.140625 C 4.363281 10.140625 0.984375 8.175781 0.984375 4.25 C 0.984375 2.832031 1.535156 1.648438 2.640625 0.703125 C 3.753906 -0.234375 5.359375 -0.765625 7.453125 -0.890625 Z M 10.671875 -21.515625 C 8.046875 -21.515625 6.734375 -19.613281 6.734375 -15.8125 C 6.734375 -14.132812 7.101562 -12.757812 7.84375 -11.6875 C 8.582031 -10.625 9.539062 -10.09375 10.71875 -10.09375 C 11.988281 -10.09375 12.984375 -10.609375 13.703125 -11.640625 C 14.421875 -12.679688 14.78125 -14.023438 14.78125 -15.671875 C 14.78125 -17.453125 14.421875 -18.867188 13.703125 -19.921875 C 12.984375 -20.984375 11.972656 -21.515625 10.671875 -21.515625 Z M 9.546875 -0.3125 C 8.785156 -0.3125 7.828125 0.0351562 6.671875 0.734375 C 5.523438 1.429688 4.953125 2.570312 4.953125 4.15625 C 4.953125 5.414062 5.550781 6.441406 6.75 7.234375 C 7.957031 8.023438 9.679688 8.421875 11.921875 8.421875 C 16.765625 8.421875 19.1875 6.671875 19.1875 3.171875 C 19.1875 2.273438 18.929688 1.535156 18.421875 0.953125 C 17.910156 0.378906 17 0.0234375 15.6875 -0.109375 C 14.382812 -0.242188 12.335938 -0.3125 9.546875 -0.3125 Z M 9.546875 -0.3125 "/></g></g></g><g fill="#28527a" fill-opacity="1"><g transform="translate(243.933172, 73.229596)"><g><path d="M 14.1875 -20.484375 C 12.175781 -20.378906 10.515625 -19.273438 9.203125 -17.171875 L 9.203125 -4.0625 C 9.203125 -3.238281 9.460938 -2.632812 9.984375 -2.25 C 10.515625 -1.875 11.691406 -1.625 13.515625 -1.5 L 13.515625 0 L 1.640625 0 L 1.640625 -1.5 L 2.734375 -1.625 C 4.210938 -1.726562 4.953125 -2.46875 4.953125 -3.84375 L 4.953125 -17.71875 C 4.953125 -19.695312 3.765625 -20.726562 1.390625 -20.8125 L 1.390625 -22.3125 L 8.890625 -22.78125 L 9.203125 -22.453125 L 9.203125 -19.328125 L 9.3125 -19.328125 C 11.28125 -21.828125 13.382812 -23.078125 15.625 -23.078125 C 16.582031 -23.078125 17.363281 -22.765625 17.96875 -22.140625 C 18.582031 -21.523438 18.890625 -20.675781 18.890625 -19.59375 C 18.890625 -18.726562 18.679688 -18.019531 18.265625 -17.46875 C 17.847656 -16.925781 17.28125 -16.65625 16.5625 -16.65625 C 15.769531 -16.65625 15.132812 -16.851562 14.65625 -17.25 C 14.175781 -17.65625 13.9375 -18.15625 13.9375 -18.75 C 13.9375 -19.207031 14.019531 -19.785156 14.1875 -20.484375 Z M 14.1875 -20.484375 "/></g></g></g><g fill="#28527a" fill-opacity="1"><g transform="translate(265.83256, 73.229596)"><g><path d="M 22.984375 -0.40625 C 21.398438 0.164062 20.164062 0.453125 19.28125 0.453125 C 16.882812 0.453125 15.472656 -0.632812 15.046875 -2.8125 L 14.921875 -2.8125 C 12.890625 -0.550781 10.457031 0.578125 7.625 0.578125 C 5.9375 0.578125 4.546875 0.0625 3.453125 -0.96875 C 2.367188 -2 1.828125 -3.359375 1.828125 -5.046875 C 1.828125 -6.929688 2.34375 -8.375 3.375 -9.375 C 4.414062 -10.375 6.195312 -11.289062 8.71875 -12.125 C 12.332031 -13.3125 14.414062 -14.070312 14.96875 -14.40625 L 14.96875 -16.65625 C 14.96875 -17.957031 14.601562 -19.082031 13.875 -20.03125 C 13.15625 -20.988281 12.085938 -21.46875 10.671875 -21.46875 C 9.203125 -21.46875 8.128906 -21.109375 7.453125 -20.390625 C 7.453125 -20.015625 7.519531 -19.566406 7.65625 -19.046875 C 7.789062 -18.535156 7.859375 -17.988281 7.859375 -17.40625 C 7.859375 -16.8125 7.59375 -16.3125 7.0625 -15.90625 C 6.539062 -15.5 5.898438 -15.296875 5.140625 -15.296875 C 3.679688 -15.296875 2.953125 -16.164062 2.953125 -17.90625 C 2.953125 -19.257812 3.800781 -20.472656 5.5 -21.546875 C 7.207031 -22.617188 9.019531 -23.15625 10.9375 -23.15625 C 14.0625 -23.15625 16.234375 -22.539062 17.453125 -21.3125 C 18.671875 -20.09375 19.28125 -18.226562 19.28125 -15.71875 L 19.140625 -4.453125 C 19.140625 -3.628906 19.332031 -3.019531 19.71875 -2.625 C 20.113281 -2.226562 20.46875 -2.003906 20.78125 -1.953125 C 21.09375 -1.898438 21.828125 -1.875 22.984375 -1.875 Z M 15 -12.5 C 11.6875 -11.519531 9.425781 -10.507812 8.21875 -9.46875 C 7.019531 -8.4375 6.421875 -7.15625 6.421875 -5.625 C 6.421875 -3.1875 7.582031 -1.96875 9.90625 -1.96875 C 11.707031 -1.96875 13.363281 -2.84375 14.875 -4.59375 Z M 15 -12.5 "/></g></g></g><g fill="#28527a" fill-opacity="1"><g transform="translate(292.117357, 73.229596)"><g><path d="M 29.234375 0 L 29.234375 -1.5 L 30.3125 -1.625 C 31.769531 -1.726562 32.5 -2.46875 32.5 -3.84375 L 32.5 -15.484375 C 32.5 -17.023438 32.144531 -18.234375 31.4375 -19.109375 C 30.726562 -19.992188 29.820312 -20.4375 28.71875 -20.4375 C 26.25 -20.4375 24.351562 -19.320312 23.03125 -17.09375 L 23.03125 -4.0625 C 23.03125 -2.53125 24.117188 -1.675781 26.296875 -1.5 L 26.296875 0 L 15.53125 0 L 15.53125 -1.5 L 16.5625 -1.625 C 17.988281 -1.738281 18.703125 -2.476562 18.703125 -3.84375 L 18.703125 -15.484375 C 18.703125 -17.023438 18.347656 -18.234375 17.640625 -19.109375 C 16.929688 -19.992188 16.023438 -20.4375 14.921875 -20.4375 C 12.484375 -20.4375 10.578125 -19.296875 9.203125 -17.015625 L 9.203125 -4.109375 C 9.203125 -2.554688 10.332031 -1.6875 12.59375 -1.5 L 12.59375 0 L 1.640625 0 L 1.640625 -1.5 L 2.734375 -1.625 C 4.210938 -1.726562 4.953125 -2.46875 4.953125 -3.84375 L 4.953125 -17.8125 C 4.953125 -19.625 3.734375 -20.625 1.296875 -20.8125 L 1.296875 -22.3125 L 8.84375 -22.78125 L 9.15625 -22.453125 L 9.15625 -19.28125 L 9.3125 -19.28125 C 9.769531 -19.71875 10.226562 -20.175781 10.6875 -20.65625 C 12.351562 -22.320312 14.398438 -23.15625 16.828125 -23.15625 C 19.679688 -23.15625 21.691406 -21.816406 22.859375 -19.140625 C 24.566406 -20.859375 25.972656 -21.957031 27.078125 -22.4375 C 28.179688 -22.914062 29.363281 -23.15625 30.625 -23.15625 C 32.625 -23.15625 34.15625 -22.492188 35.21875 -21.171875 C 36.289062 -19.847656 36.828125 -17.96875 36.828125 -15.53125 L 36.828125 -4.0625 C 36.828125 -3.332031 37.03125 -2.757812 37.4375 -2.34375 C 37.851562 -1.925781 38.78125 -1.644531 40.21875 -1.5 L 40.21875 0 Z M 29.234375 0 "/></g></g></g><g fill="#32404d" fill-opacity="1"><g transform="translate(77.78606, 91.762619)"><g><path d="M 2.625 0 L 0.890625 0 L 0.890625 -8.65625 C 1.992188 -8.695312 2.703125 -8.71875 3.015625 -8.71875 C 4.234375 -8.71875 5.191406 -8.347656 5.890625 -7.609375 C 6.597656 -6.878906 6.953125 -5.90625 6.953125 -4.6875 C 6.953125 -1.5625 5.507812 0 2.625 0 Z M 2.0625 -7.59375 L 2.0625 -1.125 C 2.332031 -1.082031 2.660156 -1.0625 3.046875 -1.0625 C 3.878906 -1.0625 4.53125 -1.367188 5 -1.984375 C 5.476562 -2.609375 5.71875 -3.472656 5.71875 -4.578125 C 5.71875 -6.628906 4.796875 -7.65625 2.953125 -7.65625 C 2.835938 -7.65625 2.539062 -7.632812 2.0625 -7.59375 Z M 2.0625 -7.59375 "/></g></g></g><g fill="#32404d" fill-opacity="1"><g transform="translate(91.144543, 91.762619)"><g><path d="M 1.09375 0 L 1.09375 -8.65625 L 2.28125 -8.65625 L 2.28125 0 Z M 1.09375 0 "/></g></g></g><g fill="#32404d" fill-opacity="1"><g transform="translate(100.447993, 91.762619)"><g><path d="M 0.5 -0.390625 L 0.921875 -1.484375 C 1.148438 -1.316406 1.425781 -1.179688 1.75 -1.078125 C 2.082031 -0.972656 2.378906 -0.921875 2.640625 -0.921875 C 3.097656 -0.921875 3.46875 -1.046875 3.75 -1.296875 C 4.03125 -1.546875 4.171875 -1.867188 4.171875 -2.265625 C 4.171875 -2.554688 4.09375 -2.828125 3.9375 -3.078125 C 3.78125 -3.328125 3.390625 -3.597656 2.765625 -3.890625 L 2.0625 -4.21875 C 1.46875 -4.488281 1.050781 -4.8125 0.8125 -5.1875 C 0.582031 -5.570312 0.46875 -6.03125 0.46875 -6.5625 C 0.46875 -7.207031 0.695312 -7.742188 1.15625 -8.171875 C 1.613281 -8.597656 2.203125 -8.8125 2.921875 -8.8125 C 3.878906 -8.8125 4.546875 -8.65625 4.921875 -8.34375 L 4.578125 -7.3125 C 4.410156 -7.425781 4.164062 -7.535156 3.84375 -7.640625 C 3.519531 -7.753906 3.222656 -7.8125 2.953125 -7.8125 C 2.546875 -7.8125 2.226562 -7.695312 2 -7.46875 C 1.769531 -7.238281 1.65625 -6.941406 1.65625 -6.578125 C 1.65625 -6.359375 1.695312 -6.15625 1.78125 -5.96875 C 1.863281 -5.789062 1.976562 -5.640625 2.125 -5.515625 C 2.269531 -5.398438 2.570312 -5.234375 3.03125 -5.015625 L 3.75 -4.671875 C 4.332031 -4.390625 4.742188 -4.054688 4.984375 -3.671875 C 5.222656 -3.285156 5.34375 -2.789062 5.34375 -2.1875 C 5.34375 -1.539062 5.082031 -0.988281 4.5625 -0.53125 C 4.039062 -0.0820312 3.34375 0.140625 2.46875 0.140625 C 1.695312 0.140625 1.039062 -0.0351562 0.5 -0.390625 Z M 0.5 -0.390625 "/></g></g></g><g fill="#32404d" fill-opacity="1"><g transform="translate(112.204559, 91.762619)"><g><path d="M 6.421875 -8.34375 L 6.015625 -7.328125 C 5.640625 -7.609375 5.046875 -7.75 4.234375 -7.75 C 3.472656 -7.75 2.863281 -7.421875 2.40625 -6.765625 C 1.945312 -6.109375 1.71875 -5.265625 1.71875 -4.234375 C 1.71875 -3.242188 1.953125 -2.441406 2.421875 -1.828125 C 2.890625 -1.222656 3.5 -0.921875 4.25 -0.921875 C 5.0625 -0.921875 5.6875 -1.207031 6.125 -1.78125 L 6.765625 -0.875 C 6.078125 -0.195312 5.195312 0.140625 4.125 0.140625 C 2.988281 0.140625 2.09375 -0.265625 1.4375 -1.078125 C 0.789062 -1.890625 0.46875 -2.960938 0.46875 -4.296875 C 0.46875 -5.597656 0.8125 -6.675781 1.5 -7.53125 C 2.195312 -8.382812 3.097656 -8.8125 4.203125 -8.8125 C 5.140625 -8.8125 5.878906 -8.65625 6.421875 -8.34375 Z M 6.421875 -8.34375 "/></g></g></g><g fill="#32404d" fill-opacity="1"><g transform="translate(125.379799, 91.762619)"><g><path d="M 0.46875 -4.40625 C 0.46875 -5.65625 0.78125 -6.703125 1.40625 -7.546875 C 2.039062 -8.390625 2.894531 -8.8125 3.96875 -8.8125 C 5.164062 -8.8125 6.082031 -8.421875 6.71875 -7.640625 C 7.363281 -6.867188 7.6875 -5.789062 7.6875 -4.40625 C 7.6875 -2.976562 7.363281 -1.863281 6.71875 -1.0625 C 6.082031 -0.257812 5.164062 0.140625 3.96875 0.140625 C 2.875 0.140625 2.015625 -0.28125 1.390625 -1.125 C 0.773438 -1.976562 0.46875 -3.070312 0.46875 -4.40625 Z M 1.71875 -4.40625 C 1.71875 -3.414062 1.910156 -2.585938 2.296875 -1.921875 C 2.691406 -1.253906 3.25 -0.921875 3.96875 -0.921875 C 4.769531 -0.921875 5.378906 -1.222656 5.796875 -1.828125 C 6.222656 -2.441406 6.4375 -3.300781 6.4375 -4.40625 C 6.4375 -6.632812 5.613281 -7.75 3.96875 -7.75 C 3.226562 -7.75 2.664062 -7.445312 2.28125 -6.84375 C 1.90625 -6.25 1.71875 -5.4375 1.71875 -4.40625 Z M 1.71875 -4.40625 "/></g></g></g><g fill="#32404d" fill-opacity="1"><g transform="translate(139.471263, 91.762619)"><g><path d="M 3.90625 0.125 L 3.3125 0.125 L 0.078125 -8.65625 L 1.390625 -8.65625 L 3.625 -2.28125 L 5.765625 -8.65625 L 7.03125 -8.65625 Z M 3.90625 0.125 "/></g></g></g><g fill="#32404d" fill-opacity="1"><g transform="translate(152.516458, 91.762619)"><g><path d="M 2.0625 -7.59375 L 2.0625 -5.1875 L 4.9375 -5.1875 L 4.9375 -4.1875 L 2.0625 -4.1875 L 2.0625 -1.0625 L 6 -1.0625 L 6 0 L 0.890625 0 L 0.890625 -8.65625 L 6.0625 -8.65625 L 6.0625 -7.59375 Z M 2.0625 -7.59375 "/></g></g></g><g fill="#32404d" fill-opacity="1"><g transform="translate(164.935073, 91.762619)"><g><path d="M 5.6875 0 L 3.375 -3.71875 C 3.113281 -3.71875 2.695312 -3.738281 2.125 -3.78125 L 2.125 0 L 0.953125 0 L 0.953125 -8.65625 C 0.992188 -8.65625 1.296875 -8.671875 1.859375 -8.703125 C 2.429688 -8.734375 2.847656 -8.75 3.109375 -8.75 C 5.191406 -8.75 6.234375 -7.921875 6.234375 -6.265625 C 6.234375 -5.722656 6.066406 -5.234375 5.734375 -4.796875 C 5.398438 -4.359375 5 -4.085938 4.53125 -3.984375 L 7.046875 0 Z M 2.125 -7.59375 L 2.125 -4.78125 C 2.40625 -4.738281 2.679688 -4.71875 2.953125 -4.71875 C 3.660156 -4.71875 4.175781 -4.832031 4.5 -5.0625 C 4.820312 -5.289062 4.984375 -5.703125 4.984375 -6.296875 C 4.984375 -6.773438 4.8125 -7.117188 4.46875 -7.328125 C 4.125 -7.546875 3.578125 -7.65625 2.828125 -7.65625 C 2.710938 -7.65625 2.476562 -7.632812 2.125 -7.59375 Z M 2.125 -7.59375 "/></g></g></g><g fill="#32404d" fill-opacity="1"><g transform="translate(177.915246, 91.762619)"><g/></g></g><g fill="#32404d" fill-opacity="1"><g transform="translate(187.496521, 91.762619)"><g><path d="M 4.046875 -7.59375 L 4.046875 0 L 2.859375 0 L 2.859375 -7.59375 L 0.109375 -7.59375 L 0.109375 -8.65625 L 6.921875 -8.65625 L 6.921875 -7.59375 Z M 4.046875 -7.59375 "/></g></g></g><g fill="#32404d" fill-opacity="1"><g transform="translate(200.458953, 91.762619)"><g><path d="M 5.859375 0 L 5.859375 -4.1875 L 2.0625 -4.1875 L 2.0625 0 L 0.890625 0 L 0.890625 -8.65625 L 2.0625 -8.65625 L 2.0625 -5.1875 L 5.859375 -5.1875 L 5.859375 -8.65625 L 7.03125 -8.65625 L 7.03125 0 Z M 5.859375 0 "/></g></g></g><g fill="#32404d" fill-opacity="1"><g transform="translate(214.313972, 91.762619)"><g><path d="M 2.0625 -7.59375 L 2.0625 -5.1875 L 4.9375 -5.1875 L 4.9375 -4.1875 L 2.0625 -4.1875 L 2.0625 -1.0625 L 6 -1.0625 L 6 0 L 0.890625 0 L 0.890625 -8.65625 L 6.0625 -8.65625 L 6.0625 -7.59375 Z M 2.0625 -7.59375 "/></g></g></g><g fill="#32404d" fill-opacity="1"><g transform="translate(226.732588, 91.762619)"><g/></g></g><g fill="#32404d" fill-opacity="1"><g transform="translate(236.313863, 91.762619)"><g><path d="M 5.6875 0 L 3.375 -3.71875 C 3.113281 -3.71875 2.695312 -3.738281 2.125 -3.78125 L 2.125 0 L 0.953125 0 L 0.953125 -8.65625 C 0.992188 -8.65625 1.296875 -8.671875 1.859375 -8.703125 C 2.429688 -8.734375 2.847656 -8.75 3.109375 -8.75 C 5.191406 -8.75 6.234375 -7.921875 6.234375 -6.265625 C 6.234375 -5.722656 6.066406 -5.234375 5.734375 -4.796875 C 5.398438 -4.359375 5 -4.085938 4.53125 -3.984375 L 7.046875 0 Z M 2.125 -7.59375 L 2.125 -4.78125 C 2.40625 -4.738281 2.679688 -4.71875 2.953125 -4.71875 C 3.660156 -4.71875 4.175781 -4.832031 4.5 -5.0625 C 4.820312 -5.289062 4.984375 -5.703125 4.984375 -6.296875 C 4.984375 -6.773438 4.8125 -7.117188 4.46875 -7.328125 C 4.125 -7.546875 3.578125 -7.65625 2.828125 -7.65625 C 2.710938 -7.65625 2.476562 -7.632812 2.125 -7.59375 Z M 2.125 -7.59375 "/></g></g></g><g fill="#32404d" fill-opacity="1"><g transform="translate(249.294035, 91.762619)"><g><path d="M 2.0625 -7.59375 L 2.0625 -5.1875 L 4.9375 -5.1875 L 4.9375 -4.1875 L 2.0625 -4.1875 L 2.0625 -1.0625 L 6 -1.0625 L 6 0 L 0.890625 0 L 0.890625 -8.65625 L 6.0625 -8.65625 L 6.0625 -7.59375 Z M 2.0625 -7.59375 "/></g></g></g><g fill="#32404d" fill-opacity="1"><g transform="translate(261.712651, 91.762619)"><g><path d="M 5.8125 0 L 5.203125 -1.828125 L 1.984375 -1.828125 L 1.34375 0 L 0.03125 0 L 3.546875 -8.78125 L 3.859375 -8.78125 L 7.125 0 Z M 3.640625 -6.515625 L 2.296875 -2.703125 L 4.875 -2.703125 Z M 3.640625 -6.515625 "/></g></g></g><g fill="#32404d" fill-opacity="1"><g transform="translate(274.787401, 91.762619)"><g><path d="M 0.890625 0 L 0.890625 -8.65625 L 2.0625 -8.65625 L 2.0625 -1.0625 L 5.984375 -1.0625 L 5.984375 0 Z M 0.890625 0 "/></g></g></g><g fill="#32404d" fill-opacity="1"><g transform="translate(286.851349, 91.762619)"><g/></g></g><g fill="#32404d" fill-opacity="1"><g transform="translate(296.432624, 91.762619)"><g><path d="M 4.046875 -3.875 L 4.046875 0 L 2.875 0 L 2.875 -3.875 L 0.078125 -8.65625 L 1.296875 -8.65625 L 3.453125 -4.875 L 5.609375 -8.65625 L 6.828125 -8.65625 Z M 4.046875 -3.875 "/></g></g></g><g fill="#32404d" fill-opacity="1"><g transform="translate(309.27093, 91.762619)"><g><path d="M 0.46875 -4.40625 C 0.46875 -5.65625 0.78125 -6.703125 1.40625 -7.546875 C 2.039062 -8.390625 2.894531 -8.8125 3.96875 -8.8125 C 5.164062 -8.8125 6.082031 -8.421875 6.71875 -7.640625 C 7.363281 -6.867188 7.6875 -5.789062 7.6875 -4.40625 C 7.6875 -2.976562 7.363281 -1.863281 6.71875 -1.0625 C 6.082031 -0.257812 5.164062 0.140625 3.96875 0.140625 C 2.875 0.140625 2.015625 -0.28125 1.390625 -1.125 C 0.773438 -1.976562 0.46875 -3.070312 0.46875 -4.40625 Z M 1.71875 -4.40625 C 1.71875 -3.414062 1.910156 -2.585938 2.296875 -1.921875 C 2.691406 -1.253906 3.25 -0.921875 3.96875 -0.921875 C 4.769531 -0.921875 5.378906 -1.222656 5.796875 -1.828125 C 6.222656 -2.441406 6.4375 -3.300781 6.4375 -4.40625 C 6.4375 -6.632812 5.613281 -7.75 3.96875 -7.75 C 3.226562 -7.75 2.664062 -7.445312 2.28125 -6.84375 C 1.90625 -6.25 1.71875 -5.4375 1.71875 -4.40625 Z M 1.71875 -4.40625 "/></g></g></g><g fill="#32404d" fill-opacity="1"><g transform="translate(323.362394, 91.762619)"><g><path d="M 0.890625 -8.65625 L 2.0625 -8.65625 L 2.0625 -2.734375 C 2.0625 -2.203125 2.226562 -1.765625 2.5625 -1.421875 C 2.90625 -1.085938 3.351562 -0.921875 3.90625 -0.921875 C 4.488281 -0.921875 4.945312 -1.082031 5.28125 -1.40625 C 5.613281 -1.738281 5.78125 -2.191406 5.78125 -2.765625 L 5.78125 -8.65625 L 6.96875 -8.65625 L 6.96875 -2.640625 C 6.96875 -1.765625 6.691406 -1.082031 6.140625 -0.59375 C 5.597656 -0.101562 4.859375 0.140625 3.921875 0.140625 C 2.941406 0.140625 2.191406 -0.0976562 1.671875 -0.578125 C 1.148438 -1.054688 0.890625 -1.742188 0.890625 -2.640625 Z M 0.890625 -8.65625 "/></g></g></g></svg>